<svg xmlns="http://www.w3.org/2000/svg" viewBox="0 0 1096.63 136.26"><defs><style>.cls-1{fill:#009fe3;}</style></defs><g id="Layer_2" data-name="Layer 2"><g id="Calque_3" data-name="Calque 3"><path class="cls-1" d="M170.37,100.44V35.82h37.42c18.22,0,31.46,12.89,31.46,31.64s-13.24,33-31.46,33Zm37.42-11.29c11.64,0,20.18-9,20.18-21.15s-8.54-20.89-20.18-20.89H181.57v42Z"/><path class="cls-1" d="M278,100.44c-18,0-31.38-14.22-31.38-33,0-19,13.33-31.64,31.38-31.64h15.73c18.66,0,31.64,12.89,31.64,31.64s-13.24,33-31.64,33Zm15.73-11.29c11.91,0,20.35-9,20.35-21.15s-8.44-20.89-20.35-20.89H278c-11.56,0-20.09,8.62-20.09,20.89S266.37,89.15,278,89.15Z"/><path class="cls-1" d="M364.06,100.44c-18,0-31.37-14.22-31.37-33,0-19,13.33-31.64,31.37-31.64h35V47.11h-35C352.51,47.11,344,55.73,344,68s8.44,21.15,20.08,21.15h35v11.29Z"/><path class="cls-1" d="M466,35.82h11V71.91c0,20-9.86,29.42-34.93,29.42-24.89,0-34.84-9.42-34.84-29.42V35.82h11.64V71.91c0,13,5.78,18.31,23.56,18.31S466,84.88,466,71.91Z"/><path class="cls-1" d="M564.16,100.44,551.8,55l-18.31,42c-1.24,2.76-3,4.27-5.78,4.27s-4.62-1.51-5.77-4.27L503.72,55l-12.36,45.42H480.25l16.62-60.8c.8-3.11,2.58-4.62,5.6-4.62a6.1,6.1,0,0,1,5.69,3.82l19.91,45.69L548,38.84A5.75,5.75,0,0,1,553.4,35c2.76,0,4.54,1.51,5.42,4.62l16.54,60.8Z"/><path class="cls-1" d="M582.84,100.44V35.82h57.68V47.11H594v42h46.58v11.29ZM602.3,72.35V62.84h35.82v9.51Z"/><path class="cls-1" d="M660.79,53.15v47.29H650V41.78c0-4.18,2.22-6.76,5.78-6.76a6.45,6.45,0,0,1,4.8,2.31l45.59,45.24V35.29H717V94.48c0,4.27-2.31,6.76-5.6,6.76a7.17,7.17,0,0,1-5.16-2.4Z"/><path class="cls-1" d="M748.62,100.44V47.11H724.08V35.82h60.36V47.11H759.9v53.33Z"/><path class="cls-1" d="M847.11,100.44l-9.7-16.27H806.84L812.17,75H832L817.6,50.84l-29.34,49.6H775.37l37.16-61.86c1.33-2.23,3-3.65,5.51-3.65s4.09,1.42,5.42,3.65l37.24,61.86Z"/><path class="cls-1" d="M876.89,100.44V47.11H852.36V35.82h60.35V47.11H888.18v53.33Z"/><path class="cls-1" d="M920.81,100.44V35.82h11.28v64.62Z"/><path class="cls-1" d="M973.43,100.44c-18,0-31.38-14.22-31.38-33,0-19,13.33-31.64,31.38-31.64h15.73c18.66,0,31.64,12.89,31.64,31.64s-13.24,33-31.64,33Zm15.73-11.29c11.91,0,20.35-9,20.35-21.15s-8.44-20.89-20.35-20.89H973.43c-11.56,0-20.09,8.62-20.09,20.89s8.44,21.15,20.09,21.15Z"/><path class="cls-1" d="M1040.46,53.15v47.29H1029.7V41.78c0-4.18,2.22-6.76,5.78-6.76,1.69,0,3.11.62,4.8,2.31l45.59,45.24V35.29h10.76V94.48c0,4.27-2.31,6.76-5.6,6.76a7.17,7.17,0,0,1-5.16-2.4Z"/><polygon points="101.33 82.75 101.32 82.77 101.32 82.75 101.33 82.75"/><path d="M27.85,10.77s0,0,0,0,0,0,0,0l-.05,0c.57,0,1.13.1,1.7.15Z"/><path d="M5.51,45.37A26.16,26.16,0,0,1,1.37,46c-.38.06-.94,0-1.24.14,0-.6.11-1.22.18-1.8H.57c0,.53.37.66,1.14.68C3,45.09,4.25,45.26,5.51,45.37Z"/><path d="M54.71,15.91c-3.45-.25-6.78.45-10.14.37l-.18.21-.59-.14a7.66,7.66,0,0,1-2.78.21c-.45,0-.92.05-1.39.06l-4,.46c-4.75.29-9.51.57-14.39,1.09-1.2.13-2.4.27-3.61.43L16.06,17a41.49,41.49,0,0,1,11.79-6.28s-.07.08-.1.1l1.7.15c2.84.26,5.63.48,8.43.73-2.78.54-5.57.66-8.29,1.37a22.21,22.21,0,0,0,2.91.35c2.5.2,5,0,7.45.77,1.19,0,2.35-.09,3.54-.11.24.05.47.1.71.17l1,.15,1.78.13,1-.07c2.15.49,4.4.3,6.51.92C54.59,15.43,54.59,15.5,54.71,15.91Z"/><path d="M21.7,48.85a3.15,3.15,0,0,1-1.7.61L12.91,50c-3.5.26-7,.51-10.54.72l-1.65.09a2.76,2.76,0,0,0-.67.07c0-.5,0-1,0-1.49,0-.78,0-1.58.08-2.36.29.25.89.05,1.27.09l3.11.21q4,.25,8,.6C15.51,48.18,18.59,48.47,21.7,48.85Z"/><path d="M130.85,56.52a10.23,10.23,0,0,1-.72,3.8c0-.29,0-.59-.06-.86-.09-1.19-.5-1.54-1.65-1.61l-1.27-.08c-3.08-.18-6.14-.37-9.21-.57-2.7-.19-5.4-.35-8.09-.55-.34,0-.74.1-1-.08v0c0-.11,0-.23,0-.34a.44.44,0,0,1,0-.16,4.33,4.33,0,0,1,.5-.08c3.23-.36,6.48-.67,9.71-.94,2.23-.2,4.45-.38,6.68-.52.78-.07,1.55-.12,2.33-.17.43,0,1.18.26,1.2-.56s-.7-.65-1.18-.72c-.9-.09-1.8-.14-2.7-.19a4.86,4.86,0,0,1,2.33-.57c1,0,1.28-.29,1-1.33-.08-.36-.16-.71-.26-1A10.4,10.4,0,0,1,130.85,56.52Z"/><line x1="17.66" y1="18.6" x2="16.06" y2="17.04"/><polyline points="72.55 18.14 72.19 18.43 68.37 21.46"/><line x1="68.27" y1="21.54" x2="68.01" y2="21.76"/><polygon points="101.33 82.75 101.32 82.77 101.32 82.75 101.33 82.75"/><path d="M118.56,101.91a2.59,2.59,0,0,1-1.25,1.15c.35-.37.7-.76,1-1.15h-2.78a3.62,3.62,0,0,0-2.82-1.7,2.64,2.64,0,0,1-2.6-2.86c-.28-5.87-.56-11.74-.88-17.61-.1-1.76-.33-3.51-.48-5.28-.14-1.33-.24-2.67-.37-4h0c0-.26-.12-.52-.19-.77s-.1-.42-.16-.61-.14-.54-.2-.81c-.05-.44-.09-.88-.14-1.33-.13-.9-.35-2.37-.48-3.28-.35-1.64-.65-3.31-1.06-4.95C103.6,48,100.1,37.48,98.4,26.56c-.2-1.15-.36-2.31-.5-3.47-.11-.57-.21-1.12-.33-1.71A7.15,7.15,0,0,0,97,17.59c.22-.51.65-.25,1-.3a7.18,7.18,0,0,0,.16,1.82c.45,1.2-.26,2.69.94,3.68l.35-.06c.1-.93.21-1.87.3-2.81s.36-1.54,1.43-1.51c.25.18.5.38.75.55a2,2,0,0,1,.33,0l.2.53c.4,1.51,0,3.2,1,4.59a4.42,4.42,0,0,1,.55-.3c1.55-.86,1.9-.49,2.13,1.6.17,1.59.49,3.16.74,4.74,0,.16,0,.47.08.49,1.5.48,1.5,1.39,1.36,2.35a4.32,4.32,0,0,0-.08,1.88c.15.45-.17,1,.33,1.44.64,0,.44-.74,1-1.07a4.23,4.23,0,0,1,.2.38,13.51,13.51,0,0,1,1.4,5.61c0,.44-.41,1.62,1,1,.45-.21.6.41.73.76a12.8,12.8,0,0,0,2.5,3.75,3,3,0,0,1,.6-.24,5.43,5.43,0,0,0-.17-1.82c-.41-2.09-.88-4.18-1.43-6.26-.35-1.46-.77-2.92-1.22-4.36a6.43,6.43,0,0,1-.31-1.51.93.93,0,0,1,.76-1c.6-.15.77.35,1,.76.43.86.16,1.8.33,2.69,0,.34,0,.75.53.73s.39-.39.39-.66a1.7,1.7,0,0,1,1.06-1.79c1-.5.44-1.56.72-2.32.21-.55,0-1.36.85-1.51s1.13.39,1.5.94c.05.08.11.18.15.26C113.88,13.3,93.16.47,68.34,0V0c.58.16,1.2.35,1.87.55L73.1.88a.92.92,0,0,1,0,.16H70.21c-.85.05-1.7.11-2.52.24a13.25,13.25,0,0,0-5.76,2c.65-.05,1.33-.08,2.43-.13-1.18.76-2,1.33-2.88,1.87,1.81-.31,3.48-1.22,5.38-.41-.85,1.2-2.55,2-3.32,3.81,1.2-.39,1.59-1.38,2.33-1.91.57-.39,1-.93,1.77-.2s.45,1.27,0,1.9a4.64,4.64,0,0,1-1.93,1.43,10.8,10.8,0,0,0-3.23,2.59c.58.56.95-.47,1.45,0,.3.51-.88.93-.18,1.45.53.37,1.11.06,1.68-.1a2.87,2.87,0,0,1,2.41-.05c-1.23.65-2.45,1.33-3.61,2s-2.5,1.54-3.67,2.4A20.27,20.27,0,0,0,53,27.25c2.79.49,4-1.93,6.06-2.95.58.54-.07,1.24.38,1.87l2.15-3.49c.1.49.15.88.23,1.4,1-1,.9-2.31,1.72-3.43.47,1.19-.45,2.31.4,3.43.63-1.25.38-2.52.75-3.62.15-.42,0-1.15.83-1.07.7.08.73.6.73,1.15A2.53,2.53,0,0,0,67,22.49V17.67a4,4,0,0,1,.22.34c.43,0,.86,0,1.3.08l4.58-1.72a1.7,1.7,0,0,1,1.7-.68c.25.06.48.16.55,0,.44-1.21,1.53-1.32,2.48-1.85a15.3,15.3,0,0,1,4.24-1.4.68.68,0,0,1,.89.33c.16.42-.19.6-.47.77a10.13,10.13,0,0,1-1.65,1c-2.85,1.07-7,3.57-8.28,4v0c-.1.08-.45.37-.45.29l-3.77,2.69-.1.08a.8.8,0,0,0-.26.57c-.07,1-1,1.67-1.94,2.16s-2.21.94-3.29,1.39c.13.9,1,.12,1.23.73-.72,1.12-2.27,1.35-3,2.49l-.22.18c.15.19.27.09.37,0l1.26-.44c-.15.86-.28,1.63-.41,2.41-.07.43-.7,1,0,1.33s.85-.38,1.18-.75a5.82,5.82,0,0,1,.5-.52c.45.76-.28,1.49.13,2.32,1.09-1.12,1-2.71,2.13-4.07v3.05c1.12-1.2.67-2.86,2.15-3.93a12.21,12.21,0,0,1,0,2.14c-.17,1.14.75,1.19,1.38,1.3.85.15,1.07-.5,1.18-1.17a.22.22,0,0,0,0-.16,6,6,0,0,1,2-5.53c.7.47.32,1.62,1.35,2.21,0-.57,0-1,.08-1.51a3.71,3.71,0,0,1,.12-.73c.07-.18.17-.31.32-.31,2.08,0,.68-1.23.63-1.83-.13-1.56.37-2.08,1.88-1.63.83.25.63-.47.77-.78a8.91,8.91,0,0,1,.5-1A8.11,8.11,0,0,1,82,15.82c.11.21.25.34.21.4a35.57,35.57,0,0,0-1.49,3.69c-1.07,3-1.92,6.1-3.5,8.85a3,3,0,0,0-.22.44,14.86,14.86,0,0,0-1.46,7.92,1.76,1.76,0,0,0,.79,1.31c.8.47.12,1.28.12,2,0,1-.93,2.14.4,3,.07,0-.22.58-.35.89-.43.93-.68,1.75.75,2,.82.16.28.81.37,1.21a7.91,7.91,0,0,1,0,1.54c.7.13.9-.43,1-.76.55-1.48,2.66-2.09,2.34-4,.59-.1.74-.6.9-1.1S82.26,42,83.25,42c.61,0,.83-.87.71-1.54s-.26-1.1-.45-1.9c.95.65.87,1.82,1.84,2.11.3-.4,0-.76,0-1.13-.09-.54-.84-1.12.33-1.51.33-.11-.07-.94-.25-1.41s-.73-1.19.28-1.51c0-1.61-.93-2.87-1.53-4.25-.3-.73-.77-1.49,0-2.19s1.38-.18,2.07.13a6.5,6.5,0,0,0,3.44,1c-.13-.27-.28-.58-.45-.87,0-.41.07-.73.6-.62h0c.27.19.53.39.8.6a1.3,1.3,0,0,0,1.71-.29c.37-.42-.28-.89-.48-1.35a3.71,3.71,0,0,0-.45-.71c.58-.29,1.12.81,1.72.05.23-.25.48-.51.73-.75.5-.24.63-.73.83-1.15,0-.08.07-.16.12-.25-.23-.9-.45-1.83-.67-2.74.17-.82.35-1.65.54-2.46.11-.25.23-.68.36-.68.32,0,.32.37.39.61s.08.55.13.83c0,.44,0,.89.07,1.35,0,.77,0,1.57-.07,2.33a.77.77,0,0,1,.1.23s0,.06,0,.1c0,.26.08.53.13.78s0,.29.09.43c.06.33.13.65.18,1l-.13,0a165.77,165.77,0,0,0,5.88,29.67,45.58,45.58,0,0,1,1.81,16.58v.1c0,.52,0,1.07,0,1.6s0,1.14,0,1.71a4.26,4.26,0,0,1,.15.69c0,.34-.1.69-.15,1q0,8.09.07,16.13a6.56,6.56,0,0,0-.7-.36c0-.23-.12-.46-.17-.67,0-.94-.1-1.85-.17-2.77a28.08,28.08,0,0,0-1.26-7.09c-.33,1.83-.65,3.6-1,5.55-1.23-.93-1.51-2.39-2.76-3.55-.35,3.52,2.4,5.85,2.91,9.06-1.16-.63-1.43-.22-1.23.83.22,1.23.25,2.5.53,3.72.25,1-.08,1.46-1.08,1.7a16.11,16.11,0,0,0-6.26,3.63,2.24,2.24,0,0,1-1.67.67c-5.21-.18-10.39-.33-15.6-.49l-1.77,0c-3.4.19-4.21-.23-5.4-3.31-1.25-3.28-2.13-6.63-3.18-9.94-.71-2.23-1.25-4.43-1.73-6.69-.07-.34-.13-.68-.22-1-.15-.79-.31-1.59-.48-2.38s-.23-1.49,1-1.3a13.84,13.84,0,0,0,6.24-.32c4.52-1.35,7.26-5.28,9.28-10a7.84,7.84,0,0,1,6.43-5.21,2.57,2.57,0,0,1,1,0c.67.11,1.23,1.15,1.83.63a7.3,7.3,0,0,0,1.64-2.55c.35-.83-1.82-3.34-3-3.44a49.2,49.2,0,0,1-5.3-.87,47.69,47.69,0,0,0-5.78-.93c-1.24-.1-1.51.13-1.68,1.38a24.66,24.66,0,0,1-3.16,9.33c-1.28,2.12-4.42,2.32-6.7.7-2-1.4-3.13-3.52-4.89-5.11-2.82.43-3.62,0-4.57-2.39a.84.84,0,0,1-.08-.19,7.18,7.18,0,0,1-3.22-2.58,16.23,16.23,0,0,0-2.71-2.91,6.5,6.5,0,0,0-8.8.07,58.43,58.43,0,0,1-9.21,6.83,16.19,16.19,0,0,0-6.13,6.47,20.09,20.09,0,0,0-1.44,3.65,6.32,6.32,0,0,1-2.4,3.67c-1.24.89-1.57,3.49-.77,4.88.35.65.75.36,1.12.05a4.78,4.78,0,0,0,2-3.46,6.89,6.89,0,0,1,1.31-3.52A16.91,16.91,0,0,1,23,82.28a6.93,6.93,0,0,1-1.28,2l-.62.65a9.2,9.2,0,0,0-2.53,8,9.28,9.28,0,0,1-.91,4.51,6.6,6.6,0,0,0-.52,4c.35,1.37-1.53,2.23-.83,3.69.1.17-.47.17-.74.22l-12,.07C15,123.8,37.38,136.26,63.06,136.26c27.28,0,50.78-14.07,61.53-34.35ZM91.89,10.09C86,6.64,80,4.62,73,7.72a2.36,2.36,0,0,1,1.89-2.14c6-1.77,11.24.44,16.34,3.21C91.64,9,92.19,9.26,91.89,10.09ZM33.73,102.82a1.72,1.72,0,0,1-2,1.7c-2.38,0-4.78.18-7.18.33-.71.05-1.19,0-1.53-.76a5.18,5.18,0,0,0-1.13-1.28c-.22-.25-.68-.56-.63-.77.45-2.09-1.29-4.18-.07-6.29a6.65,6.65,0,0,0,.6-1.61,14.51,14.51,0,0,1,3.71-7,13.6,13.6,0,0,1,1.07-.92,2.19,2.19,0,0,0,.38-.73l.15,0h.17L29,83.71a1.39,1.39,0,0,1,.33-.1c.52-.74,1-1.47,1.64-2.32l.56,1.06a2.87,2.87,0,0,0,0,.52l0,.06,0,.07c0,.13,0,.24.07.35a.29.29,0,0,0,.2,0c0,.68-.1,1.33-.13,2l-.52,1.72-.4,1a.43.43,0,0,1,0,.33c0,.11,0,.24,0,.35.05.57.07,1.12.12,1.71.78,2.14,2.32,3.91,2.9,6.18C34.28,98.81,33.65,100.81,33.73,102.82Zm15.34-13.4s0,.11,0,.18a12.4,12.4,0,0,0-1,5c.23,2.79-1,5.36-1.23,8.07A1.4,1.4,0,0,1,45.17,104a17.53,17.53,0,0,0-3.15.13,3.41,3.41,0,0,1-3.68-2,10.77,10.77,0,0,1-1.3-4c-.26-2.5-.65-5-1.11-7.45,0-.29-.1-.58-.15-.84a11.24,11.24,0,0,1,0-4.4c.49-1.14.95-2.27,1.44-3.41a4.69,4.69,0,0,0,.66-1.6l3.1-1a16.38,16.38,0,0,0,7.48,1.61c1.36,0,1.81.55,1.81,1.85A19.81,19.81,0,0,1,49.07,89.42Zm14.32,14.46c-1.75,0-3.49,0-5.26,0h0c-1.57,0-3.15,0-4.73,0s-2.92-.92-2.85-2.53c.12-3,.35-5.9,2.17-8.45a6.32,6.32,0,0,0,1-3.25c0-.5.14-1,.22-1.49a31.32,31.32,0,0,1,1.8-5.9.93.93,0,0,1,0-.1c.18-.45.33-1,1-.93s.75.54.9,1a2.29,2.29,0,0,0,.1.23c.48,1.22,1,2.42,1.46,3.65a13,13,0,0,1,.42,1.57A26.3,26.3,0,0,0,63,96a15.9,15.9,0,0,1,1.68,6.55C64.71,103.52,64.43,103.92,63.39,103.88Z"/><line x1="115.58" y1="101.91" x2="113.06" y2="101.91"/></g></g></svg>