<svg xmlns="http://www.w3.org/2000/svg" viewBox="0 0 160.08 171.15"><g id="Layer_2" data-name="Layer 2"><g id="Calque_1" data-name="Calque 1"><polygon points="123.98 103.94 123.95 103.97 123.95 103.94 123.98 103.94"/><path d="M34.07,13.53s0,0,0,0,0,0,0,0l-.06.06c.69,0,1.38.13,2.08.19Z"/><path d="M6.75,57a31.37,31.37,0,0,1-5.08.81c-.46.07-1.15,0-1.51.18.06-.75.13-1.53.22-2.26H.7c0,.66.45.82,1.39.86C3.65,56.63,5.2,56.85,6.75,57Z"/><path d="M66.93,20c-4.22-.31-8.29.57-12.41.47l-.21.27-.72-.18a9.51,9.51,0,0,1-3.4.27c-.56,0-1.13.05-1.71.07l-4.86.57c-5.8.36-11.63.72-17.6,1.37-1.46.16-2.94.34-4.41.54l-2-2a50.42,50.42,0,0,1,14.42-7.88.71.71,0,0,0-.12.13c.7,0,1.38.12,2.08.18,3.48.32,6.89.61,10.31.91-3.4.69-6.82.83-10.14,1.73a26.81,26.81,0,0,0,3.56.43c3.06.25,6.17,0,9.12,1l4.33-.14c.29.07.58.13.86.22s.83.12,1.26.19l2.18.17,1.28-.09c2.62.61,5.37.37,8,1.15C66.79,19.38,66.79,19.47,66.93,20Z"/><path d="M26.55,61.36a3.81,3.81,0,0,1-2.08.77c-2.89.2-5.78.43-8.68.65-4.28.33-8.6.63-12.9.9l-2,.12a3.46,3.46,0,0,0-.82.08C0,63.25,0,62.64,0,62c0-1,0-2,.1-3,.35.31,1.08.06,1.55.11l3.81.26q4.86.33,9.72.75C19,60.52,22.74,60.89,26.55,61.36Z"/><path d="M160.08,71a13.16,13.16,0,0,1-.87,4.77c0-.36,0-.73-.08-1.08-.11-1.48-.61-1.93-2-2-.51,0-1-.07-1.55-.11-3.77-.22-7.52-.46-11.27-.71-3.3-.24-6.6-.45-9.9-.69-.41,0-.9.12-1.29-.1V71a2,2,0,0,1,0-.42.75.75,0,0,1,0-.21,6,6,0,0,1,.61-.1c4-.45,7.92-.83,11.88-1.18,2.73-.25,5.44-.47,8.17-.65,1-.08,1.89-.15,2.85-.21.53,0,1.45.33,1.47-.71s-.86-.81-1.45-.9c-1.1-.12-2.2-.18-3.3-.24a5.87,5.87,0,0,1,2.85-.71c1.25,0,1.57-.37,1.27-1.68-.11-.44-.21-.89-.33-1.32A13.34,13.34,0,0,1,160.08,71Z"/><line x1="21.61" y1="23.36" x2="19.65" y2="21.4"/><polyline points="88.76 22.78 88.31 23.15 83.65 26.96"/><line x1="83.53" y1="27.06" x2="83.2" y2="27.33"/><polygon points="123.98 103.94 123.95 103.97 123.95 103.94 123.98 103.94"/><path d="M145.05,128a3.22,3.22,0,0,1-1.53,1.45c.43-.47.85-1,1.28-1.45h-3.4a4.41,4.41,0,0,0-3.45-2.14c-2.18-.26-3.09-1.51-3.17-3.59q-.53-11.06-1.08-22.13c-.13-2.2-.41-4.4-.6-6.62-.16-1.67-.28-3.36-.44-5h0c-.06-.33-.15-.65-.23-1s-.12-.53-.2-.77-.16-.68-.25-1c-.06-.55-.1-1.1-.16-1.67-.16-1.12-.43-3-.59-4.12-.43-2.06-.79-4.16-1.3-6.21-3.2-13.45-7.48-26.68-9.56-40.39-.25-1.45-.45-2.9-.61-4.36-.14-.72-.27-1.41-.41-2.14a9.39,9.39,0,0,0-.75-4.77c.26-.63.79-.31,1.2-.37A9.36,9.36,0,0,0,120,24c.55,1.51-.32,3.39,1.14,4.63l.43-.08c.12-1.16.27-2.34.37-3.53s.45-1.93,1.75-1.89c.31.22.61.47.92.69a3,3,0,0,1,.41,0c.08.23.16.43.24.67.49,1.9.06,4,1.28,5.77.25-.16.47-.28.68-.39,1.89-1.08,2.32-.61,2.6,2,.21,2,.6,4,.9,6,0,.21,0,.59.1.61,1.84.61,1.84,1.76,1.67,3a5.6,5.6,0,0,0-.1,2.36c.19.57-.2,1.29.41,1.81.77,0,.53-.93,1.16-1.34.06.12.16.29.25.47a17.7,17.7,0,0,1,1.71,7c.06.55-.51,2,1.24,1.22.55-.26.73.51.9,1a16.42,16.42,0,0,0,3,4.71,3.33,3.33,0,0,1,.74-.31,6.81,6.81,0,0,0-.21-2.28c-.51-2.63-1.08-5.26-1.75-7.87-.43-1.83-.94-3.66-1.49-5.48a8.56,8.56,0,0,1-.38-1.89,1.2,1.2,0,0,1,.93-1.29c.74-.18.94.45,1.21,1,.53,1.08.2,2.26.4,3.38.06.43.06.94.66.92s.46-.49.46-.84A2.15,2.15,0,0,1,143,41.75c1.26-.63.53-2,.87-2.91.27-.69,0-1.71,1-1.9s1.39.49,1.84,1.19a2.58,2.58,0,0,1,.18.32C139.32,16.71,114,.59,83.61,0V0c.71.2,1.47.45,2.28.69l3.55.39a.68.68,0,0,1,0,.2H85.89c-1,.07-2.08.15-3.08.31a15.93,15.93,0,0,0-7,2.55c.8-.06,1.63-.1,3-.17-1.45,1-2.49,1.67-3.53,2.35,2.22-.39,4.26-1.53,6.58-.51-1,1.51-3.11,2.46-4.05,4.79,1.47-.49,1.94-1.74,2.85-2.41.7-.49,1.18-1.16,2.16-.24s.55,1.59,0,2.38a5.6,5.6,0,0,1-2.36,1.79,13.38,13.38,0,0,0-4,3.27c.72.69,1.17-.6,1.78-.05.36.64-1.08,1.17-.23,1.82.66.47,1.37.08,2.06-.12A3.43,3.43,0,0,1,83,17c-1.51.82-3,1.68-4.43,2.53s-3,1.94-4.48,3a25.33,25.33,0,0,0-9.21,11.69c3.42.62,5-2.42,7.42-3.7.71.67-.08,1.54.47,2.34.85-1.43,1.67-2.79,2.63-4.38.12.61.18,1.1.28,1.75,1.2-1.24,1.1-2.89,2.1-4.3.57,1.49-.55,2.89.49,4.3.77-1.57.47-3.16.92-4.54.18-.53,0-1.45,1-1.35.86.1.9.75.9,1.45A3.13,3.13,0,0,0,82,28.24v-6a4.92,4.92,0,0,1,.26.43c.53,0,1.06.06,1.59.1l5.61-2.16a2.07,2.07,0,0,1,2.08-.86c.3.09.59.21.67,0,.55-1.5,1.87-1.65,3-2.32a18.56,18.56,0,0,1,5.2-1.75.82.82,0,0,1,1.08.41c.2.53-.22.75-.57,1a11.87,11.87,0,0,1-2,1.21c-3.48,1.34-8.52,4.48-10.13,5l0,0c-.12.1-.55.47-.55.37L83.65,27l-.12.1a1,1,0,0,0-.33.71c-.08,1.31-1.16,2.1-2.36,2.71s-2.71,1.19-4,1.76c.17,1.12,1.22.14,1.51.91-.88,1.41-2.77,1.7-3.65,3.12l-.26.23c.18.24.32.12.45,0l1.54-.56c-.18,1.08-.34,2-.5,3-.09.55-.86,1.22,0,1.67s1-.47,1.44-.94c.16-.22.37-.38.61-.65.55,1-.34,1.88.17,2.92,1.32-1.41,1.24-3.41,2.6-5.12v3.83c1.37-1.51.82-3.58,2.63-4.93a15.43,15.43,0,0,1,0,2.69c-.2,1.43.92,1.49,1.69,1.63,1,.18,1.31-.63,1.45-1.47a.35.35,0,0,0,0-.2c-.53-2.75.53-5,2.39-7,.85.59.38,2,1.65,2.77,0-.71.06-1.3.1-1.89a4.88,4.88,0,0,1,.14-.92c.08-.22.2-.39.39-.39,2.54,0,.83-1.55.77-2.3-.16-2,.45-2.61,2.3-2,1,.31.78-.59.94-1s.39-.9.61-1.31a10.13,10.13,0,0,1,4.51-4.48c.14.26.3.43.26.51A48.21,48.21,0,0,0,98.69,25c-1.31,3.77-2.35,7.66-4.28,11.13a4.61,4.61,0,0,0-.27.55,19.09,19.09,0,0,0-1.79,9.94,2.23,2.23,0,0,0,1,1.65c1,.59.14,1.61.14,2.49,0,1.26-1.14,2.69.49,3.79.08.06-.27.73-.43,1.12-.53,1.16-.83,2.2.92,2.57,1,.2.35,1,.45,1.53a10.34,10.34,0,0,1,0,1.93c.85.17,1.1-.55,1.24-1,.67-1.85,3.26-2.62,2.87-5.07.72-.12.9-.75,1.1-1.38s.49-1.53,1.7-1.49c.75,0,1-1.1.87-1.94s-.32-1.38-.55-2.38c1.16.81,1.06,2.28,2.24,2.65.37-.51,0-1-.06-1.43-.1-.67-1-1.41.41-1.89.41-.15-.08-1.19-.31-1.78s-.89-1.49.35-1.89c0-2-1.14-3.61-1.87-5.34-.37-.92-.94-1.88,0-2.75s1.69-.23,2.52.16c1.35.61,2.65,1.41,4.22,1.22-.16-.34-.35-.73-.55-1.1,0-.51.08-.91.73-.77h0c.33.24.66.49,1,.75A1.57,1.57,0,0,0,113,36c.45-.53-.34-1.13-.59-1.7a5.08,5.08,0,0,0-.55-.89c.71-.37,1.37,1,2.1.06.28-.31.59-.63.9-.94.61-.3.77-.92,1-1.45.05-.1.09-.2.15-.3-.29-1.14-.55-2.3-.82-3.44.21-1,.43-2.08.65-3.1.15-.31.29-.86.45-.86.39,0,.39.47.47.78s.1.69.16,1c0,.55.05,1.12.09,1.69,0,1-.07,2-.09,2.93a.69.69,0,0,1,.13.29s0,.08-.06.12c.06.32.1.67.16,1s.06.36.1.55c.08.4.16.81.22,1.22l-.16-.06a214.48,214.48,0,0,0,7.19,37.27A58.39,58.39,0,0,1,126.69,91v.13c0,.65,0,1.34,0,2s0,1.43,0,2.14a6.87,6.87,0,0,1,.18.88c0,.43-.12.86-.18,1.26,0,6.77.06,13.51.08,20.26a8.66,8.66,0,0,0-.86-.45c-.06-.29-.14-.57-.2-.84-.06-1.18-.12-2.32-.21-3.48A35.87,35.87,0,0,0,124,104c-.41,2.3-.8,4.52-1.25,7-1.51-1.16-1.85-3-3.38-4.46-.43,4.42,2.93,7.36,3.57,11.39-1.43-.79-1.76-.28-1.51,1,.26,1.55.3,3.14.65,4.67.31,1.26-.1,1.83-1.32,2.14a19.58,19.58,0,0,0-7.67,4.56,2.67,2.67,0,0,1-2,.84c-6.38-.23-12.72-.41-19.1-.61l-2.16,0c-4.15.24-5.15-.29-6.6-4.16-1.53-4.12-2.61-8.34-3.89-12.49a86,86,0,0,1-2.12-8.4c-.08-.43-.16-.85-.27-1.3-.18-1-.38-2-.59-3-.22-1.16-.28-1.87,1.18-1.63a16.37,16.37,0,0,0,7.65-.41c5.52-1.69,8.88-6.62,11.35-12.51,1.61-3.89,4-5.87,7.86-6.54a3.42,3.42,0,0,1,1.27,0c.81.14,1.5,1.45,2.24.8a9.29,9.29,0,0,0,2-3.2c.43-1-2.22-4.2-3.62-4.32a60.86,60.86,0,0,1-6.48-1.1A59.56,59.56,0,0,0,92.66,71c-1.53-.12-1.86.17-2.06,1.74a31.56,31.56,0,0,1-3.87,11.71c-1.57,2.67-5.4,2.92-8.2.88-2.42-1.75-3.83-4.42-6-6.42-3.44.55-4.42,0-5.58-3a1.09,1.09,0,0,1-.1-.25,8.66,8.66,0,0,1-3.93-3.24,20.2,20.2,0,0,0-3.33-3.65C56.22,66,52,65.9,48.84,68.86a72.24,72.24,0,0,1-11.26,8.57,19.91,19.91,0,0,0-7.5,8.13,25.56,25.56,0,0,0-1.78,4.59,7.91,7.91,0,0,1-2.93,4.6c-1.51,1.13-1.92,4.39-.94,6.14.43.81.92.45,1.37.06a6,6,0,0,0,2.48-4.34,8.85,8.85,0,0,1,1.61-4.42,21.76,21.76,0,0,1-1.81,11.16,9,9,0,0,1-1.57,2.57l-.75.82c-2.43,2.85-3.75,6-3.1,10,.31,1.9-.47,3.83-1.12,5.67a8.57,8.57,0,0,0-.63,5c.43,1.71-1.88,2.79-1,4.63.12.22-.57.22-.9.28l-14.67.08c14.06,23.09,41.41,38.74,72.83,38.74,33.38,0,62.13-17.67,75.27-43.14ZM112.42,12.67c-7.17-4.34-14.61-6.86-23.11-3C89.7,7.85,90.43,7.38,91.62,7c7.39-2.22,13.75.55,20,4C112.12,11.35,112.79,11.64,112.42,12.67ZM41.26,129.15a2.13,2.13,0,0,1-2.4,2.14c-2.91,0-5.85.23-8.78.41-.88.06-1.47,0-1.88-1a6.65,6.65,0,0,0-1.38-1.61c-.27-.3-.84-.69-.78-1,.55-2.63-1.57-5.25-.08-7.9a8.56,8.56,0,0,0,.73-2,18.34,18.34,0,0,1,4.55-8.8,13.11,13.11,0,0,1,1.3-1.16,2.75,2.75,0,0,0,.47-.92l.18,0,.21,0c.71-.74,1.4-1.47,2.12-2.2a2,2,0,0,1,.41-.13c.63-.93,1.24-1.85,2-2.91l.7,1.33a2.7,2.7,0,0,0-.07.65l.07.08-.07.08c0,.16.07.31.09.45a.34.34,0,0,0,.24,0c0,.86-.12,1.67-.16,2.53-.21.71-.43,1.44-.63,2.16-.17.44-.33.87-.49,1.32a.5.5,0,0,1,0,.41,3.31,3.31,0,0,1,0,.45c.06.71.08,1.4.14,2.14,1,2.69,2.83,4.91,3.54,7.76C41.94,124.12,41.16,126.62,41.26,129.15ZM60,112.32c0,.06,0,.14-.06.22a16.11,16.11,0,0,0-1.16,6.3c.28,3.51-1.24,6.73-1.51,10.13a1.72,1.72,0,0,1-2,1.71,20.72,20.72,0,0,0-3.85.16c-2.22.33-3.56-.81-4.5-2.52a13.54,13.54,0,0,1-1.59-5.08c-.33-3.14-.8-6.25-1.37-9.35-.06-.37-.12-.73-.18-1.06a14.24,14.24,0,0,1,0-5.52c.59-1.43,1.16-2.86,1.75-4.28a6.24,6.24,0,0,0,.82-2l3.79-1.22c2.83,1.61,6,1.87,9.15,2,1.67.06,2.22.69,2.22,2.32A25.28,25.28,0,0,1,60,112.32Zm17.53,18.16c-2.14-.07-4.28,0-6.44,0v0c-1.92,0-3.85,0-5.79,0-2.1,0-3.57-1.17-3.48-3.18.14-3.71.42-7.42,2.64-10.62a8.2,8.2,0,0,0,1.19-4.07c.06-.64.16-1.25.26-1.88a40.17,40.17,0,0,1,2.2-7.42.67.67,0,0,0,.06-.12c.23-.57.41-1.2,1.16-1.16s.92.67,1.1,1.2c.05.08.09.21.13.29.59,1.53,1.28,3,1.79,4.58a18,18,0,0,1,.51,2c.61,3.85,2.36,7.17,4.14,10.49a20.49,20.49,0,0,1,2,8.24C79.17,130,78.82,130.54,77.56,130.48Z"/><line x1="141.4" y1="128.01" x2="138.32" y2="128.01"/></g></g></svg>