<svg xmlns="http://www.w3.org/2000/svg" viewBox="0 0 738.88 194.65"><defs><style>.cls-1{fill:#fff;}</style></defs><g id="Layer_2" data-name="Layer 2"><g id="Calque_1" data-name="Calque 1"><path class="cls-1" d="M0,129.63V64.93H38.47c18.73,0,32.35,12.9,32.35,31.68s-13.62,33-32.35,33Zm38.47-11.3c12,0,20.74-9,20.74-21.18S50.44,76.23,38.47,76.23h-27v42.1Z"/><path class="cls-1" d="M78.68,129.63V64.93h11.6v64.7Z"/><path class="cls-1" d="M100.15,129.63V64.93h59.3v11.3H111.66v42.1h47.89v11.3Zm20-28.12V92H157v9.52Z"/><path class="cls-1" d="M249.92,129.63l-12.7-45.48-18.83,42.1c-1.28,2.76-3.1,4.27-5.94,4.27s-4.75-1.51-5.94-4.27l-18.73-42.1-12.7,45.48H163.66l17.08-60.87c.83-3.12,2.65-4.63,5.76-4.63A6.26,6.26,0,0,1,192.35,68l20.47,45.74L233.29,68a5.89,5.89,0,0,1,5.57-3.83c2.83,0,4.66,1.51,5.57,4.63l17,60.87Z"/><path class="cls-1" d="M266.82,129.63v-11.3h49.8c6.22,0,9.69-3.38,9.69-8.45,0-5.52-3.47-8.37-9.69-8.37H286.1c-12.52,0-20.28-7.74-20.28-18.42,0-10.42,7.22-18.16,20.46-18.16H334v11.3h-47.7c-5.29,0-8.4,3-8.4,7.92s3.2,7.84,8.31,7.84h30.43c13.44,0,20.65,6.14,20.65,18.69,0,10.85-6.76,18.95-20.65,18.95Z"/><path class="cls-1" d="M345.59,129.63V64.93h11.6v64.7Z"/><path class="cls-1" d="M397.4,129.63c-18.55,0-32.26-14.24-32.26-33,0-19,13.71-31.68,32.26-31.68h16.17c19.19,0,32.53,12.9,32.53,31.68s-13.61,33-32.53,33Zm16.17-11.3c12.25,0,20.93-9,20.93-21.18s-8.68-20.92-20.93-20.92H397.4c-11.88,0-20.65,8.64-20.65,20.92s8.68,21.18,20.65,21.18Z"/><path class="cls-1" d="M464,82.29v47.34H453V70.89c0-4.18,2.28-6.76,5.94-6.76a6.7,6.7,0,0,1,4.93,2.31l46.88,45.3V64.4h11.05v59.27c0,4.27-2.37,6.77-5.75,6.77a7.46,7.46,0,0,1-5.3-2.41Z"/><polygon class="cls-1" points="696.72 118.22 696.7 118.24 696.7 118.22 696.72 118.22"/><path class="cls-1" d="M591.74,15.39l0,0s0,0,0,.05l-.07.07c.81,0,1.61.14,2.42.21Z"/><path class="cls-1" d="M559.83,64.82a37.45,37.45,0,0,1-5.92.92c-.55.08-1.34-.06-1.76.21.06-.86.14-1.74.25-2.58h.38c0,.75.52.94,1.61,1C556.22,64.41,558,64.66,559.83,64.82Z"/><path class="cls-1" d="M630.11,22.72c-4.93-.35-9.68.66-14.49.53l-.25.31-.84-.2a11.51,11.51,0,0,1-4,.3l-2,.08c-1.89.23-3.78.43-5.67.66-6.79.41-13.59.82-20.57,1.55-1.7.19-3.42.39-5.14.62l-2.29-2.23a58.85,58.85,0,0,1,16.84-9,.92.92,0,0,0-.14.14c.82.06,1.61.14,2.43.21l12,1c-4,.78-8,.94-11.85,2a31,31,0,0,0,4.16.49c3.57.29,7.2,0,10.65,1.11l5.06-.17c.34.09.67.15,1,.25s1,.14,1.47.23l2.54.18,1.49-.1c3.07.69,6.28.43,9.3,1.31C630,22.05,630,22.15,630.11,22.72Z"/><path class="cls-1" d="M583,69.78a4.49,4.49,0,0,1-2.43.88c-3.38.23-6.76.49-10.13.74-5,.38-10,.72-15.07,1l-2.35.14a3.9,3.9,0,0,0-1,.1c0-.72-.07-1.42-.07-2.14,0-1.11,0-2.24.11-3.36.41.35,1.27.07,1.81.12,1.48.09,3,.21,4.45.3,3.79.26,7.57.53,11.35.86C574.11,68.83,578.51,69.25,583,69.78Z"/><path class="cls-1" d="M738.88,80.74a14.61,14.61,0,0,1-1,5.43c0-.42-.05-.84-.09-1.23-.12-1.69-.72-2.2-2.36-2.3-.6,0-1.21-.06-1.81-.11q-6.6-.39-13.16-.81c-3.85-.28-7.71-.51-11.56-.79-.48,0-1,.14-1.5-.12v-.07a3.85,3.85,0,0,1,0-.48.61.61,0,0,1,0-.23,5.85,5.85,0,0,1,.71-.12c4.62-.51,9.26-1,13.87-1.34,3.19-.28,6.36-.54,9.54-.75,1.12-.09,2.22-.16,3.34-.23.61,0,1.69.37,1.71-.81s-1-.93-1.69-1c-1.28-.14-2.57-.21-3.85-.28a7,7,0,0,1,3.33-.81c1.45,0,1.83-.41,1.47-1.9-.12-.51-.24-1-.38-1.5A14.89,14.89,0,0,1,738.88,80.74Z"/><line class="cls-1" x1="577.19" y1="26.57" x2="574.9" y2="24.34"/><polyline class="cls-1" points="655.6 25.91 655.08 26.33 649.63 30.66"/><line class="cls-1" x1="649.49" y1="30.78" x2="649.11" y2="31.08"/><polygon class="cls-1" points="696.72 118.22 696.7 118.24 696.7 118.22 696.72 118.22"/><path class="cls-1" d="M721.32,145.59a3.75,3.75,0,0,1-1.78,1.65l1.5-1.65h-4a5.12,5.12,0,0,0-4-2.43c-2.54-.3-3.61-1.72-3.71-4.08q-.6-12.59-1.26-25.17c-.14-2.5-.48-5-.69-7.53-.19-1.9-.33-3.83-.52-5.73h0c-.07-.37-.17-.74-.26-1.09a8.11,8.11,0,0,0-.24-.88c-.09-.39-.19-.76-.28-1.16-.08-.62-.12-1.25-.2-1.9-.19-1.27-.49-3.38-.69-4.68-.49-2.34-.92-4.73-1.52-7.07C700,68.58,695,53.54,692.53,37.94c-.28-1.65-.52-3.29-.71-5-.17-.81-.31-1.6-.48-2.43a10.34,10.34,0,0,0-.88-5.43c.31-.72.93-.35,1.41-.41a10.42,10.42,0,0,0,.23,2.59c.65,1.72-.38,3.85,1.34,5.26l.5-.09c.14-1.32.31-2.67.42-4s.53-2.2,2-2.16c.36.26.71.54,1.07.79a3.91,3.91,0,0,1,.48.05c.09.25.19.49.28.76.57,2.16.07,4.57,1.5,6.56.29-.18.55-.32.79-.44,2.21-1.23,2.71-.69,3,2.3.24,2.27.69,4.52,1,6.76,0,.24,0,.68.12.7,2.14.69,2.14,2,2,3.36a6.2,6.2,0,0,0-.12,2.69c.22.65-.24,1.46.48,2.06.9,0,.62-1.07,1.35-1.53.07.14.19.33.29.53a19.66,19.66,0,0,1,2,8c.07.63-.6,2.32,1.45,1.39.64-.3.86.58,1.05,1.09a18.68,18.68,0,0,0,3.56,5.36,4.71,4.71,0,0,1,.86-.35,7.66,7.66,0,0,0-.24-2.6c-.59-3-1.26-6-2-8.94-.5-2.09-1.1-4.17-1.74-6.24a9.67,9.67,0,0,1-.45-2.15A1.36,1.36,0,0,1,714.23,45c.86-.21,1.1.51,1.41,1.09.62,1.22.23,2.57.47,3.84.07.49.07,1.07.76,1.05s.55-.56.55-1a2.43,2.43,0,0,1,1.52-2.55c1.48-.72.62-2.23,1-3.32.31-.78,0-1.94,1.21-2.15s1.62.55,2.14,1.34c.07.12.17.26.22.37C714.64,19,685,.67,649.58,0V0l2.67.79,4.14.44a.61.61,0,0,1,0,.23h-4.11c-1.21.07-2.43.17-3.59.35a18.77,18.77,0,0,0-8.24,2.9c.93-.07,1.91-.12,3.48-.19-1.69,1.09-2.91,1.9-4.12,2.67,2.59-.44,5-1.74,7.69-.58-1.22,1.71-3.64,2.8-4.74,5.44,1.71-.55,2.26-2,3.33-2.73.81-.56,1.38-1.32,2.52-.28s.65,1.81,0,2.71a6.57,6.57,0,0,1-2.76,2,15.5,15.5,0,0,0-4.62,3.71c.84.79,1.36-.67,2.07-.05.43.72-1.26,1.33-.26,2.07.76.53,1.6.09,2.41-.14a4.12,4.12,0,0,1,3.45-.07c-1.76.93-3.5,1.9-5.17,2.87a62,62,0,0,0-5.23,3.43c-4.71,3.43-8.59,7.53-10.76,13.31,4,.69,5.78-2.76,8.66-4.22.84.76-.09,1.76.55,2.66l3.07-5c.14.7.21,1.25.33,2,1.41-1.41,1.29-3.29,2.45-4.89.67,1.69-.64,3.29.58,4.89.9-1.78.54-3.59,1.07-5.17.21-.6,0-1.64,1.19-1.52,1,.11,1,.85,1,1.64a3.53,3.53,0,0,0,1.1,2.78V25.24a5,5,0,0,1,.31.49c.62,0,1.23.06,1.85.11l6.55-2.46a2.43,2.43,0,0,1,2.42-1c.36.09.69.23.79-.05.64-1.71,2.19-1.87,3.54-2.64a22.15,22.15,0,0,1,6.07-2,1,1,0,0,1,1.26.46c.24.61-.26.86-.66,1.12a14.7,14.7,0,0,1-2.36,1.36c-4.07,1.53-10,5.1-11.83,5.7l0,0c-.14.11-.64.53-.64.41l-5.38,3.85-.14.12a1.11,1.11,0,0,0-.38.81c-.1,1.48-1.36,2.39-2.76,3.08-1.55.77-3.17,1.35-4.71,2,.19,1.28,1.42.17,1.76,1.05-1,1.6-3.24,1.92-4.26,3.54-.1.1-.31.26-.31.26.21.28.38.14.52,0l1.81-.62c-.21,1.22-.4,2.31-.59,3.43-.1.62-1,1.39,0,1.9s1.21-.54,1.68-1.07c.2-.25.43-.44.72-.74.64,1.09-.41,2.13.19,3.31,1.55-1.6,1.45-3.87,3-5.81v4.35c1.6-1.71,1-4.08,3.07-5.61a18.75,18.75,0,0,1,0,3.06c-.24,1.63,1.07,1.69,2,1.86,1.22.21,1.52-.72,1.69-1.67a.37.37,0,0,0,0-.23c-.61-3.13.62-5.68,2.79-7.91,1,.68.45,2.32,1.93,3.16,0-.82.07-1.49.11-2.16a6.26,6.26,0,0,1,.17-1c.1-.26.24-.44.45-.44,3,0,1-1.76.91-2.62-.19-2.23.52-3,2.69-2.32,1.19.35.9-.67,1.09-1.11a15.58,15.58,0,0,1,.71-1.48A11.66,11.66,0,0,1,669,22.6c.17.3.36.48.31.58a52.18,52.18,0,0,0-2.14,5.26c-1.52,4.28-2.74,8.71-5,12.65a5.9,5.9,0,0,0-.3.63c-2,3.73-2.27,7.37-2.1,11.31a2.55,2.55,0,0,0,1.14,1.87c1.15.68.17,1.83.17,2.83,0,1.44-1.33,3.06.57,4.31.1.07-.31.84-.5,1.28-.62,1.32-1,2.5,1.07,2.92,1.17.23.41,1.16.53,1.73a11.61,11.61,0,0,1,0,2.21c1,.18,1.29-.63,1.45-1.09.79-2.11,3.81-3,3.36-5.77.83-.14,1-.86,1.28-1.58s.58-1.74,2-1.69c.88,0,1.19-1.25,1-2.2s-.38-1.58-.64-2.71c1.36.92,1.24,2.59,2.62,3,.43-.58,0-1.09-.07-1.62-.12-.77-1.19-1.6.47-2.16.48-.16-.09-1.34-.35-2s-1-1.69.4-2.15c0-2.3-1.33-4.1-2.19-6.07-.43-1.05-1.09-2.14,0-3.13s2-.26,3,.18c1.57.7,3.09,1.6,4.93,1.39-.19-.39-.41-.83-.65-1.25,0-.58.1-1,.86-.88h0c.39.28.77.56,1.15.86a1.87,1.87,0,0,0,2.45-.42c.52-.6-.41-1.27-.69-1.92a5.69,5.69,0,0,0-.65-1c.84-.42,1.6,1.16,2.46.07.33-.35.69-.72,1-1.07.72-.35.91-1,1.19-1.64a2.26,2.26,0,0,1,.17-.35c-.33-1.3-.64-2.62-1-3.92.24-1.18.5-2.36.76-3.52.17-.35.33-1,.52-1,.45,0,.45.53.55.88s.12.78.19,1.18c0,.62,0,1.27.09,1.92,0,1.11-.07,2.25-.09,3.34a1,1,0,0,1,.14.32s0,.1-.07.14c.07.37.12.77.19,1.12s.07.41.12.62c.1.46.19.93.26,1.39l-.19-.07a238.07,238.07,0,0,0,8.4,42.39,64.8,64.8,0,0,1,2.59,23.69v.14c0,.74,0,1.53,0,2.29s0,1.62,0,2.43a7.49,7.49,0,0,1,.22,1c-.05.49-.14,1-.22,1.44,0,7.69.08,15.36.1,23-.31-.18-.64-.34-1-.51-.07-.32-.17-.65-.24-.95-.07-1.34-.14-2.64-.24-4a39.85,39.85,0,0,0-1.8-10.13c-.48,2.62-.93,5.15-1.46,7.93-1.76-1.32-2.16-3.41-3.94-5.08-.5,5,3.42,8.37,4.16,13-1.67-.91-2.05-.33-1.76,1.18.31,1.76.36,3.57.76,5.31.36,1.43-.12,2.08-1.55,2.43-3.45.88-6.28,2.94-8.94,5.19a3.14,3.14,0,0,1-2.38,1c-7.45-.25-14.85-.46-22.3-.69-.83,0-1.66,0-2.52,0-4.85.28-6-.32-7.71-4.73-1.78-4.68-3-9.48-4.54-14.2a95.75,95.75,0,0,1-2.48-9.55c-.09-.49-.19-1-.31-1.49-.21-1.13-.45-2.27-.69-3.4-.26-1.32-.33-2.13,1.38-1.86a19.58,19.58,0,0,0,8.92-.46c6.45-1.92,10.38-7.53,13.26-14.23,1.88-4.43,4.69-6.67,9.18-7.44a4.13,4.13,0,0,1,1.48-.05c1,.17,1.76,1.65,2.61.91a10.21,10.21,0,0,0,2.34-3.64c.5-1.18-2.6-4.77-4.24-4.91a68.27,68.27,0,0,1-7.57-1.25,68.18,68.18,0,0,0-8.25-1.33c-1.79-.13-2.17.19-2.41,2A35,35,0,0,1,653.22,96c-1.83,3-6.3,3.31-9.56,1-2.83-2-4.47-5-7-7.3-4,.62-5.16,0-6.52-3.41a1.47,1.47,0,0,1-.12-.28,10.2,10.2,0,0,1-4.59-3.68,22.41,22.41,0,0,0-3.88-4.15C617.6,75,612.73,75,609,78.31a84.16,84.16,0,0,1-13.16,9.76,22.94,22.94,0,0,0-8.75,9.24,28.38,28.38,0,0,0-2.07,5.22,9,9,0,0,1-3.43,5.24c-1.76,1.27-2.24,5-1.1,7,.5.93,1.08.51,1.6.07a6.81,6.81,0,0,0,2.9-4.93,9.82,9.82,0,0,1,1.88-5,24.28,24.28,0,0,1-2.12,12.7,10,10,0,0,1-1.83,2.92l-.88.92c-2.83,3.25-4.38,6.82-3.62,11.36.36,2.16-.54,4.36-1.3,6.44a9.56,9.56,0,0,0-.74,5.73c.5,1.94-2.19,3.17-1.19,5.26.14.25-.67.25-1,.32l-17.13.1c16.42,26.25,48.35,44.05,85,44.05,39,0,72.55-20.09,87.9-49.06ZM683.23,14.42c-8.38-4.94-17.06-7.81-27-3.39.45-2.11,1.3-2.64,2.68-3.06,8.64-2.52,16.07.63,23.35,4.59C682.87,12.91,683.66,13.23,683.23,14.42ZM600.14,146.89c.05,1.2-.88,2.45-2.81,2.43-3.4,0-6.83.26-10.25.46-1,.07-1.72,0-2.19-1.08a7.91,7.91,0,0,0-1.62-1.84c-.31-.34-1-.78-.91-1.08.65-3-1.83-6-.09-9a9.89,9.89,0,0,0,.86-2.29,20.59,20.59,0,0,1,5.3-10,16,16,0,0,1,1.52-1.32c.27-.21.39-.7.55-1l.22,0,.23,0c.84-.83,1.65-1.67,2.48-2.5a1.68,1.68,0,0,1,.47-.14c.74-1.07,1.46-2.11,2.34-3.32.28.54.54,1,.81,1.51a3.57,3.57,0,0,0-.08.74l.08.09-.08.1c0,.18.08.34.1.51a.42.42,0,0,0,.29,0c-.05,1-.15,1.9-.2,2.88-.23.81-.5,1.64-.73,2.45l-.57,1.51a.58.58,0,0,1-.05.46,4.43,4.43,0,0,1,0,.51c.07.81.1,1.6.17,2.44,1.12,3.06,3.31,5.58,4.14,8.83C600.92,141.16,600,144,600.14,146.89Zm21.91-19.15c0,.07,0,.17-.07.26a17.73,17.73,0,0,0-1.35,7.16c.33,4-1.46,7.65-1.76,11.52a2,2,0,0,1-2.38,1.95,24.18,24.18,0,0,0-4.5.18c-2.6.37-4.17-.93-5.26-2.87a15.35,15.35,0,0,1-1.86-5.77c-.38-3.57-.92-7.12-1.59-10.64-.07-.42-.14-.84-.21-1.21A15.81,15.81,0,0,1,603,122c.69-1.62,1.35-3.24,2-4.86a6.92,6.92,0,0,0,1-2.3l4.42-1.39c3.31,1.83,7,2.13,10.69,2.3,2,.07,2.59.78,2.59,2.64A28.06,28.06,0,0,1,622.05,127.74Zm20.47,20.65c-2.5-.07-5,0-7.52,0v0c-2.24,0-4.5,0-6.76,0-2.45,0-4.16-1.32-4.07-3.62.17-4.22.5-8.43,3.09-12.07a9.08,9.08,0,0,0,1.38-4.64c.08-.72.19-1.41.31-2.13a45.8,45.8,0,0,1,2.57-8.44s.05-.09.07-.13c.27-.65.48-1.37,1.36-1.33s1.07.77,1.29,1.37c0,.09.09.23.14.33.69,1.73,1.5,3.45,2.09,5.21a20.8,20.8,0,0,1,.6,2.25c.71,4.38,2.76,8.16,4.83,11.93a22.74,22.74,0,0,1,2.4,9.37C644.4,147.88,644,148.46,642.52,148.39Z"/><line class="cls-1" x1="717.06" y1="145.59" x2="713.47" y2="145.59"/></g></g></svg>